<?xml version="1.0" encoding="utf-8"?>
<!-- Generator: Adobe Illustrator 26.4.1, SVG Export Plug-In . SVG Version: 6.00 Build 0)  -->
<svg version="1.1" id="doctor" xmlns="http://www.w3.org/2000/svg" xmlns:xlink="http://www.w3.org/1999/xlink" x="0px" y="0px"
	 viewBox="0 0 20 20" style="enable-background:new 0 0 20 20;" xml:space="preserve">
<style type="text/css">
	.st0{fill-rule:evenodd;clip-rule:evenodd;fill:#76947A;}
	.st1{fill-rule:evenodd;clip-rule:evenodd;fill:#FFFFFF;}
</style>
<g>
	<circle class="st0" cx="10" cy="10" r="9.5"/>
	<g>
		<path class="st1" d="M6.9,9.2l1.5,0l0-1.6l1.6,0l0,1.6l1.6,0l0,1.6l-1.6,0l0,1.6l-1.6,0l0-1.6l-1.6,0c0-0.3,0-0.6,0-0.9
			C6.8,9.5,6.8,9.3,6.9,9.2L6.9,9.2z M12.7,7l2,0l1,2.6l-3,0L12.7,7z M17.7,13.3v-0.4c-0.1-0.2-0.2-1.3-0.3-1.6
			c-0.3-2.1-0.7-1.3-1-1.8l-0.8-2c-0.2-0.5-0.3-1-0.8-1.1c-0.4-0.1-8.4,0-9.4,0c-2.6,0-2.7-0.2-2.7,1.1c0,1-0.1,4.9,0,5.7
			c0.1,0.7,0.6,0.6,1.3,0.6c0.2-0.1,0.1,0.1,0.2-0.3c0.5-2.2,3.6-1.9,3.7,0.3l4.5,0c0.1-1.1,0.8-1.9,1.9-1.9c0.8,0,1.4,0.6,1.7,1.2
			c0.2,0.6-0.2,0.8,1.3,0.7C17.5,13.7,17.5,13.5,17.7,13.3L17.7,13.3z"/>
		<path class="st1" d="M5.7,13.1c0.8-0.3,1.3,1,0.5,1.3C5.3,14.7,4.8,13.5,5.7,13.1z M4.5,13.9c0.2,1.8,3.1,1.5,2.8-0.4
			c-0.1-0.7-0.8-1.3-1.6-1.2C5,12.4,4.4,13.1,4.5,13.9z"/>
		<path class="st1" d="M13.9,13.1c0.9-0.3,1.2,1,0.4,1.3c-0.4,0.1-0.8-0.1-0.9-0.4C13.3,13.4,13.6,13.2,13.9,13.1L13.9,13.1z
			 M12.7,13.9c0.2,1.8,3,1.6,2.8-0.3C15.3,11.7,12.5,12,12.7,13.9z"/>
		<path class="st1" d="M10.6,6l1.7,0c0.5,0,0.4-0.1,0.4-0.2c-0.1-0.2,0,0-0.2-0.1l-0.2-0.1c0,0,0,0-0.1,0c-0.1-1-1.3-1.1-1.4,0.1
			l-0.4,0V6L10.6,6z"/>
	</g>
</g>
</svg>
